<?xml version="1.0" encoding="UTF-8"?>
<svg id="Layer_1" data-name="Layer 1" xmlns="http://www.w3.org/2000/svg" viewBox="0 0 490 490">
  <defs>
    <style>
      .cls-1 {
        fill: #ffd26c;
      }

      .cls-2 {
        stroke: #fff;
        stroke-miterlimit: 10;
        stroke-width: 10px;
      }

      .cls-3 {
        fill: #fff;
      }

      .cls-4 {
        fill: #fbb315;
      }
    </style>
  </defs>
  <circle cx="245" cy="245" r="240"/>
  <path class="cls-4" d="M247.48,64.08c22.69,0,34.04,2.15,34.04,6.43,0,5.06-5.1,7.81-15.29,8.27-12.32.6-23.81,3.46-34.46,8.55-10.64,5.1-20.11,12.06-28.4,20.87-8.3,8.82-14.75,18.73-19.4,29.75-4.64,11.03-6.95,22.69-6.95,35,0,13.69,3.87,24.64,11.61,32.84,7.74,8.21,17.83,12.31,30.28,12.31,11.53,0,21.61-4.83,30.27-14.48,8.65-9.65,12.98-20.93,12.98-33.85,0-10.64-2.67-20.6-8.02-29.86-5.35-9.26-13.13-17.02-23.37-23.26-4.37-2.88-6.54-4.93-6.54-6.16,0-1.81,3.1-4.56,9.29-8.21,6.95-3.8,14.74-6.98,23.35-9.57,8.61-2.59,15.86-3.88,21.76-3.88,6.8,0,13.25,1.45,19.37,4.33,6.12,2.89,11.53,7.04,16.22,12.43,4.68,5.39,8.27,11.63,10.76,18.7,2.49,7.06,3.74,14.55,3.74,22.45,0,13.23-3.05,26.26-9.12,39.1-6.08,12.84-14.07,23.21-23.93,31.12-12.77,10.18-28.15,18.47-46.16,24.85-18.02,6.39-35.16,9.57-51.41,9.57s-31.49-2.24-47.07-6.72c-15.58-4.49-27.92-10.39-37.04-17.69-12.17-10.04-18.24-24.18-18.24-42.43,0-14.45,4.34-28.9,13.03-43.36,8.68-14.44,20.45-27.53,35.3-39.23,14.85-11.71,31.23-20.95,49.13-27.72,17.9-6.77,35.98-10.16,54.27-10.16Z"/>
  <path class="cls-3" d="M371.42,356.16c-5.61-23.07-32-35.37-34.37-31.15-2.37,4.22,9.73,7.05,13.09,18.07,7.28,23.84-15.4,51.5-49.97,61.56-34.57,10.07-62.13,3.66-71.11-18.84-4.54-11.39-.18-17.77-5.09-19.28-4.91-1.51-9.56,14.57-3.5,33.35,9.18,28.44,48.11,43.43,90.16,31.18,42.05-12.26,67.94-45.43,60.79-74.9Z"/>
  <path class="cls-1" d="M239.09,59.43c22.64,0,33.98,2.15,33.98,6.42,0,5.04-5.09,7.8-15.26,8.25-12.3.6-23.76,3.46-34.39,8.53-10.62,5.09-20.07,12.04-28.34,20.84-8.28,8.8-14.72,18.7-19.36,29.7-4.63,11.01-6.94,22.64-6.94,34.93,0,13.66,3.86,24.59,11.59,32.77,7.73,8.19,17.79,12.28,30.22,12.28,11.5,0,21.58-4.81,30.22-14.45,8.63-9.63,12.95-20.9,12.95-33.78,0-10.62-2.67-20.56-8-29.81-5.34-9.25-13.11-16.98-23.32-23.21-4.36-2.87-6.53-4.93-6.53-6.15,0-1.81,3.09-4.55,9.27-8.19,6.94-3.79,14.71-6.96,23.3-9.55,8.6-2.58,15.83-3.87,21.72-3.87,6.78,0,13.23,1.45,19.34,4.32,6.11,2.89,11.5,7.03,16.19,12.41,4.67,5.38,8.26,11.61,10.74,18.66,2.49,7.05,3.74,14.52,3.74,22.4,0,13.2-3.04,26.2-9.1,39.02-6.07,12.82-14.04,23.16-23.89,31.06-12.75,10.16-28.1,18.43-46.07,24.8-17.99,6.37-35.09,9.55-51.31,9.55s-31.43-2.23-46.98-6.71c-15.55-4.48-27.87-10.37-36.98-17.65-12.14-10.02-18.2-24.14-18.2-42.35,0-14.43,4.33-28.85,13-43.27,8.67-14.41,20.41-27.47,35.24-39.16,14.82-11.69,31.16-20.91,49.03-27.67,17.86-6.76,35.91-10.14,54.16-10.14Z"/>
  <path class="cls-4" d="M245.97,63.26c22.64,0,33.98,2.15,33.98,6.42,0,5.05-5.09,7.8-15.25,8.26-12.3.61-23.77,3.46-34.39,8.53-10.62,5.09-20.07,12.04-28.34,20.83-8.28,8.8-14.73,18.7-19.36,29.7-4.64,11.01-6.94,22.64-6.94,34.93,0,13.66,3.86,24.59,11.59,32.77,7.73,8.19,17.79,12.28,30.22,12.28,11.5,0,21.57-4.81,30.21-14.45,8.64-9.63,12.96-20.9,12.96-33.78,0-10.62-2.67-20.56-8.01-29.81-5.33-9.25-13.11-16.98-23.32-23.21-4.36-2.87-6.53-4.92-6.53-6.15,0-1.81,3.09-4.55,9.27-8.2,6.94-3.79,14.72-6.97,23.3-9.55,8.6-2.58,15.82-3.87,21.72-3.87,6.78,0,13.23,1.45,19.34,4.32,6.1,2.88,11.5,7.02,16.18,12.41,4.67,5.38,8.26,11.61,10.75,18.66,2.49,7.05,3.73,14.52,3.73,22.4,0,13.2-3.04,26.2-9.1,39.02-6.07,12.82-14.04,23.17-23.89,31.06-12.74,10.16-28.1,18.43-46.07,24.8-17.99,6.38-35.09,9.55-51.31,9.55s-31.43-2.23-46.98-6.71c-15.55-4.48-27.87-10.37-36.97-17.66-12.15-10.02-18.21-24.13-18.21-42.34,0-14.42,4.33-28.85,13-43.27,8.67-14.42,20.41-27.48,35.24-39.16,14.82-11.69,31.16-20.9,49.03-27.67,17.86-6.76,35.91-10.14,54.16-10.14Z"/>
  <path class="cls-3" d="M334.22,108.7c-10.78,2.32,13.76,43.62-12.87,89.8-5.13,8.13-17.61,26.56-41.04,39.37-43.43,23.75-102.75,28.52-147.52,9.84-39.92-16.65-41.88-42.27-47.89-40.28-6,1.98,5.12,44.26,54.8,80.63,23.23,17,61.56,23.2,99.94,17.13,0,0,35.37,54.33,46.83,49.97,11.46-4.36-3.03-62.66-3.03-62.66,23.09-10.11,43.82-25.46,58.29-46.45,43.98-63.86.81-139.15-7.5-137.36Z"/>
  <text/>
  <circle class="cls-2" cx="245" cy="245" r="240"/>
  <path class="cls-4" d="M247.48,64.08c22.69,0,34.04,2.15,34.04,6.43,0,5.06-5.1,7.81-15.29,8.27-12.32.6-23.81,3.46-34.46,8.55-10.64,5.1-20.11,12.06-28.4,20.87-8.3,8.82-14.75,18.73-19.4,29.75-4.64,11.03-6.95,22.69-6.95,35,0,13.69,3.87,24.64,11.61,32.84,7.74,8.21,17.83,12.31,30.28,12.31,11.53,0,21.61-4.83,30.27-14.48,8.65-9.65,12.98-20.93,12.98-33.85,0-10.64-2.67-20.6-8.02-29.86-5.35-9.26-13.13-17.02-23.37-23.26-4.37-2.88-6.54-4.93-6.54-6.16,0-1.81,3.1-4.56,9.29-8.21,6.95-3.8,14.74-6.98,23.35-9.57,8.61-2.59,15.86-3.88,21.76-3.88,6.8,0,13.25,1.45,19.37,4.33,6.12,2.89,11.53,7.04,16.22,12.43,4.68,5.39,8.27,11.63,10.76,18.7,2.49,7.06,3.74,14.55,3.74,22.45,0,13.23-3.05,26.26-9.12,39.1-6.08,12.84-14.07,23.21-23.93,31.12-12.77,10.18-28.15,18.47-46.16,24.85-18.02,6.39-35.16,9.57-51.41,9.57s-31.49-2.24-47.07-6.72c-15.58-4.49-27.92-10.39-37.04-17.69-12.17-10.04-18.24-24.18-18.24-42.43,0-14.45,4.34-28.9,13.03-43.36,8.68-14.44,20.45-27.53,35.3-39.23,14.85-11.71,31.23-20.95,49.13-27.72,17.9-6.77,35.98-10.16,54.27-10.16Z"/>
  <path class="cls-3" d="M371.42,356.16c-5.61-23.07-32-35.37-34.37-31.15-2.37,4.22,9.73,7.05,13.09,18.07,7.28,23.84-15.4,51.5-49.97,61.56-34.57,10.07-62.13,3.66-71.11-18.84-4.54-11.39-.18-17.77-5.09-19.28-4.91-1.51-9.56,14.57-3.5,33.35,9.18,28.44,48.11,43.43,90.16,31.18,42.05-12.26,67.94-45.43,60.79-74.9Z"/>
  <path class="cls-1" d="M239.09,59.43c22.64,0,33.98,2.15,33.98,6.42,0,5.04-5.09,7.8-15.26,8.25-12.3.6-23.76,3.46-34.39,8.53-10.62,5.09-20.07,12.04-28.34,20.84-8.28,8.8-14.72,18.7-19.36,29.7-4.63,11.01-6.94,22.64-6.94,34.93,0,13.66,3.86,24.59,11.59,32.77,7.73,8.19,17.79,12.28,30.22,12.28,11.5,0,21.58-4.81,30.22-14.45,8.63-9.63,12.95-20.9,12.95-33.78,0-10.62-2.67-20.56-8-29.81-5.34-9.25-13.11-16.98-23.32-23.21-4.36-2.87-6.53-4.93-6.53-6.15,0-1.81,3.09-4.55,9.27-8.19,6.94-3.79,14.71-6.96,23.3-9.55,8.6-2.58,15.83-3.87,21.72-3.87,6.78,0,13.23,1.45,19.34,4.32,6.11,2.89,11.5,7.03,16.19,12.41,4.67,5.38,8.26,11.61,10.74,18.66,2.49,7.05,3.74,14.52,3.74,22.4,0,13.2-3.04,26.2-9.1,39.02-6.07,12.82-14.04,23.16-23.89,31.06-12.75,10.16-28.1,18.43-46.07,24.8-17.99,6.37-35.09,9.55-51.31,9.55s-31.43-2.23-46.98-6.71c-15.55-4.48-27.87-10.37-36.98-17.65-12.14-10.02-18.2-24.14-18.2-42.35,0-14.43,4.33-28.85,13-43.27,8.67-14.41,20.41-27.47,35.24-39.16,14.82-11.69,31.16-20.91,49.03-27.67,17.86-6.76,35.91-10.14,54.16-10.14Z"/>
  <path class="cls-4" d="M245.97,63.26c22.64,0,33.98,2.15,33.98,6.42,0,5.05-5.09,7.8-15.25,8.26-12.3.61-23.77,3.46-34.39,8.53-10.62,5.09-20.07,12.04-28.34,20.83-8.28,8.8-14.73,18.7-19.36,29.7-4.64,11.01-6.94,22.64-6.94,34.93,0,13.66,3.86,24.59,11.59,32.77,7.73,8.19,17.79,12.28,30.22,12.28,11.5,0,21.57-4.81,30.21-14.45,8.64-9.63,12.96-20.9,12.96-33.78,0-10.62-2.67-20.56-8.01-29.81-5.33-9.25-13.11-16.98-23.32-23.21-4.36-2.87-6.53-4.92-6.53-6.15,0-1.81,3.09-4.55,9.27-8.2,6.94-3.79,14.72-6.97,23.3-9.55,8.6-2.58,15.82-3.87,21.72-3.87,6.78,0,13.23,1.45,19.34,4.32,6.1,2.88,11.5,7.02,16.18,12.41,4.67,5.38,8.26,11.61,10.75,18.66,2.49,7.05,3.73,14.52,3.73,22.4,0,13.2-3.04,26.2-9.1,39.02-6.07,12.82-14.04,23.17-23.89,31.06-12.74,10.16-28.1,18.43-46.07,24.8-17.99,6.38-35.09,9.55-51.31,9.55s-31.43-2.23-46.98-6.71c-15.55-4.48-27.87-10.37-36.97-17.66-12.15-10.02-18.21-24.13-18.21-42.34,0-14.42,4.33-28.85,13-43.27,8.67-14.42,20.41-27.48,35.24-39.16,14.82-11.69,31.16-20.9,49.03-27.67,17.86-6.76,35.91-10.14,54.16-10.14Z"/>
  <path class="cls-3" d="M334.22,108.7c-10.78,2.32,13.76,43.62-12.87,89.8-5.13,8.13-17.61,26.56-41.04,39.37-43.43,23.75-102.75,28.52-147.52,9.84-39.92-16.65-41.88-42.27-47.89-40.28-6,1.98,5.12,44.26,54.8,80.63,23.23,17,61.56,23.2,99.94,17.13,0,0,35.37,54.33,46.83,49.97,11.46-4.36-3.03-62.66-3.03-62.66,23.09-10.11,43.82-25.46,58.29-46.45,43.98-63.86.81-139.15-7.5-137.36Z"/>
  <text/>
</svg>